<mxfile host="app.diagrams.net" modified="2020-08-16T14:55:39.893Z" agent="5.0 (Macintosh; Intel Mac OS X 10_15_4) AppleWebKit/537.36 (KHTML, like Gecko) Chrome/84.0.4147.125 Safari/537.36" etag="Lw44CDe_elDa3Pf6ruTM" version="13.6.2" type="github">
  <diagram id="6a731a19-8d31-9384-78a2-239565b7b9f0" name="Page-1">
    <mxGraphModel dx="1751" dy="1616" grid="0" gridSize="10" guides="1" tooltips="1" connect="1" arrows="1" fold="1" page="1" pageScale="1" pageWidth="1000" pageHeight="2000" background="#4D4D4D" math="0" shadow="0" extFonts="VT323^https://fonts.googleapis.com/css?family=VT323|Major Mono Display^https://fonts.googleapis.com/css?family=Major+Mono+Display">
      <root>
        <mxCell id="0" />
        <mxCell id="1" parent="0" />
        <mxCell id="v4dsADXtx60repPowToY-1063" value="&lt;b&gt;&lt;font style=&quot;font-size: 70px&quot;&gt;Corporate&lt;/font&gt;&lt;/b&gt;" style="whiteSpace=wrap;html=1;strokeColor=none;fillColor=none;fontFamily=Major Mono Display;fontSize=70;fontColor=#dddddd;align=left;FType=g;" vertex="1" parent="1">
          <mxGeometry x="35" y="34" width="401" height="78" as="geometry" />
        </mxCell>
        <mxCell id="v4dsADXtx60repPowToY-1064" value="As a lifer corporate drone, you&#39;ve mastered the arts of persuasion, calculation, and acceptable risk. &lt;br&gt;&lt;br&gt;Your hits, and those of your minions are much more likely to be critical hits (double base critical strike chance)&lt;br&gt;&lt;br&gt;&lt;br&gt;" style="whiteSpace=wrap;html=1;strokeColor=none;fillColor=none;fontFamily=Major Mono Display;fontSize=35;fontColor=#dddddd;align=left;fontStyle=0;horizontal=1;verticalAlign=top;" vertex="1" parent="1">
          <mxGeometry x="35" y="130" width="920" height="503" as="geometry" />
        </mxCell>
      </root>
    </mxGraphModel>
  </diagram>
</mxfile>
